<svg width="86" height="86" viewBox="0 0 86 86" fill="none" xmlns="http://www.w3.org/2000/svg">
<rect width="86" height="86" rx="5" fill="none"/>
<mask id="mask0_7_615" style="mask-type:alpha" maskUnits="userSpaceOnUse" x="19" y="11" width="49" height="50">
<rect x="19" y="11" width="49" height="50" fill="#D9D9D9"/>
</mask>
<g mask="url(#mask0_7_615)">
<path d="M43.5005 50.5833C41.7991 50.5833 40.353 49.9757 39.162 48.7604C37.971 47.5451 37.3755 46.0694 37.3755 44.3333C37.3755 42.5972 37.971 41.1215 39.162 39.9062C40.353 38.6909 41.7991 38.0833 43.5005 38.0833C45.2019 38.0833 46.6481 38.6909 47.8391 39.9062C49.03 41.1215 49.6255 42.5972 49.6255 44.3333C49.6255 46.0694 49.03 47.5451 47.8391 48.7604C46.6481 49.9757 45.2019 50.5833 43.5005 50.5833ZM27.3203 36C27.7967 31.868 29.5661 28.4045 32.6286 25.6093C35.6911 22.8142 39.2981 21.4166 43.4495 21.4166C45.9335 21.4166 48.2304 21.9288 50.3401 22.9531C52.4498 23.9774 54.2533 25.375 55.7505 27.1458V21.4166H59.8339V36H45.5422V31.8333H54.1172C53.0283 29.9583 51.5566 28.4479 49.7021 27.302C47.8476 26.1562 45.7804 25.5833 43.5005 25.5833C40.5061 25.5833 37.8689 26.5729 35.5891 28.552C33.3092 30.5312 31.9311 33.0138 31.4547 36H27.3203Z" fill="#D9D9D9"/>
</g>
<rect x="30" y="37" width="26" height="19" fill="none"/>
<path d="M17 31.6971L30.6046 46.5L17 61.3029L17 31.6971Z" stroke="#D9D9D9" stroke-width="5"/>
<path d="M55 46.5L74.5 25.2824V67.7176L55 46.5Z" fill="#D9D9D9"/>
</svg>
