<svg width="116" height="81" viewBox="0 0 116 81" fill="none" xmlns="http://www.w3.org/2000/svg">
<path d="M7.0964 75.597V15.3252H25.8852V22.8979H16.9075V68.0005H25.8852V75.597H7.0964Z" fill="#D9D9D9"/>
<path d="M108.337 15.3252V75.597H89.5479V68.0005H98.5255V22.8979H89.5479V15.3252H108.337Z" fill="#D9D9D9"/>
<mask id="mask0_27_755" style="mask-type:alpha" maskUnits="userSpaceOnUse" x="28" y="19" width="59" height="59">
<rect x="28" y="19" width="58.1918" height="59" fill="#D9D9D9"/>
</mask>
<g mask="url(#mask0_27_755)">
<path d="M49.8217 70.625L46.3666 67.1834L50.246 63.25H49.8217C45.0936 63.25 41.0829 61.5804 37.7894 58.2412C34.4959 54.902 32.8491 50.8355 32.8491 46.0417C32.8491 41.248 34.4959 37.1815 37.7894 33.8422C41.0829 30.503 45.0936 28.8334 49.8217 28.8334H64.3697C69.0977 28.8334 73.1085 30.503 76.402 33.8422C79.6955 37.1815 81.3423 41.248 81.3423 46.0417C81.3423 50.8355 79.6955 54.902 76.402 58.2412C73.1085 61.5804 69.0977 63.25 64.3697 63.25V58.3334C67.7238 58.3334 70.5829 57.1349 72.9469 54.7381C75.3109 52.3412 76.493 49.4424 76.493 46.0417C76.493 42.641 75.3109 39.7422 72.9469 37.3454C70.5829 34.9485 67.7238 33.75 64.3697 33.75H49.8217C46.4676 33.75 43.6085 34.9485 41.2445 37.3454C38.8805 39.7422 37.6984 42.641 37.6984 46.0417C37.6984 49.4424 38.8805 52.3412 41.2445 54.7381C43.6085 57.1349 46.4676 58.3334 49.8217 58.3334L50.7916 58.825L46.4272 54.4L49.8217 50.9584L59.5204 60.7917L49.8217 70.625Z" fill="#D9D9D9"/>
</g>
</svg>
